<svg xmlns="http://www.w3.org/2000/svg" viewBox="0 0 512 512">
  <defs>
    <linearGradient id="grad" x1="0%" y1="0%" x2="100%" y2="100%">
      <stop offset="0%" style="stop-color:#6366f1"/>
      <stop offset="100%" style="stop-color:#8b5cf6"/>
    </linearGradient>
  </defs>
  <rect width="512" height="512" rx="96" fill="url(#grad)"/>
  <g fill="white">
    <!-- JSON brackets -->
    <path d="M156 156c-22 0-40 18-40 40v60c0 11-9 20-20 20v40c11 0 20 9 20 20v60c0 22 18 40 40 40h20v-40h-20v-70c0-17-9-32-22-40 13-8 22-23 22-40v-70h20v-40h-20z"/>
    <path d="M356 156c22 0 40 18 40 40v60c0 11 9 20 20 20v40c-11 0-20 9-20 20v60c0 22-18 40-40 40h-20v-40h20v-70c0-17 9-32 22-40-13-8-22-23-22-40v-70h-20v-40h20z"/>
    <!-- Code symbol -->
    <rect x="200" y="226" width="112" height="24" rx="4"/>
    <rect x="220" y="262" width="72" height="24" rx="4"/>
  </g>
</svg>
